<svg xmlns="http://www.w3.org/2000/svg" width="32" height="30" fill="none"><path fill="url(#a)" d="M8.067 10.063c-1.746 1.636-2.729 3.855-2.734 6.17s.968 4.536 2.707 6.18c1.96-4.25 5.453-7.8 9.813-9.913-3.763 2.985-6.303 7.103-7.187 11.65 3.467 1.538 7.734.975 10.6-1.712 3.987-3.738 5.107-13.926 5.347-16.726a.6.6 0 0 0-.037-.262.6.6 0 0 0-.151-.223.692.692 0 0 0-.518-.177c-2.987.225-13.854 1.275-17.84 5.013"/><defs><linearGradient id="a" x1="15.974" x2="15.974" y1="5.048" y2="24.993" gradientUnits="userSpaceOnUse"><stop stop-color="#ffbf00"/><stop offset="1" stop-color="#f2a60c"/></linearGradient></defs></svg>